# Blender v2.82 (sub 7) OBJ File: 'mountain_lib.blend'
# www.blender.org
mtllib filled.mtl
o filled_Cube.006
v 1.000000 0.500000 -1.000000
v 1.000000 -0.500000 -1.000000
v 1.000000 0.500000 1.000000
v 1.000000 -0.500000 1.000000
v -1.000000 -0.500000 -1.000000
v -1.000000 -0.500000 1.000000
v -1.000000 -0.500000 -1.000000
v -1.000000 -0.500000 1.000000
v -1.000000 -0.447138 -1.000000
v -1.000000 -0.447138 1.000000
v 1.000000 0.552862 -1.000000
v 1.000000 0.552862 1.000000
v 1.000000 0.500000 0.700399
v 1.000000 -0.500000 0.700399
v -1.000000 -0.447138 0.700399
v 1.000000 0.552862 0.700399
v 1.000000 -0.500000 -0.736810
v 1.000000 0.500000 -0.736810
v -1.000000 -0.447138 -0.736810
v 1.000000 0.552862 -0.736810
v 0.746999 0.373500 1.000000
v 0.746999 0.373500 -1.000000
v 0.746999 0.426362 1.000000
v 0.746999 0.426362 -1.000000
v 0.643223 0.374473 0.452911
v 0.747579 0.426651 -0.346483
v 1.000000 -0.407716 -1.000000
v 1.000000 -0.407716 1.000000
v -0.838780 -0.419390 1.000000
v -0.838780 -0.366528 1.000000
v 1.000000 -0.407716 0.700399
v 1.000000 -0.407716 -0.736810
v -0.838780 -0.419390 -1.000000
v -0.838780 -0.366528 -1.000000
v -0.796316 -0.345296 0.573455
v -0.752347 -0.323312 -0.512184
v 0.415000 0.207500 -1.000000
v 0.415000 0.260362 -1.000000
v 0.110007 0.107866 0.777216
v 0.415000 0.260362 -0.736810
v 1.000000 0.309960 -1.000000
v 1.000000 0.309960 1.000000
v 0.415000 0.207500 1.000000
v 0.415000 0.260362 1.000000
v 1.000000 0.309960 0.700399
v 1.000000 0.309960 -0.736810
v 1.000000 -0.303986 -1.000000
v 1.000000 -0.303986 1.000000
v -0.657563 -0.328782 1.000000
v -0.657563 -0.275920 1.000000
v 1.000000 -0.303986 0.700399
v 1.000000 -0.303986 -0.736810
v -0.657563 -0.328782 -1.000000
v -0.657563 -0.275920 -1.000000
v -0.489658 -0.191967 0.817401
v -0.237380 -0.065829 -0.842930
vt 0.577490 0.750000
vt 0.625000 0.750000
vt 0.593375 0.781625
vt 0.551875 0.823125
vt 0.125000 0.500000
vt 0.375000 0.500000
vt 0.375000 0.532899
vt 0.375000 0.712550
vt 0.375000 0.750000
vt 0.125000 0.750000
vt 0.577490 0.712550
vt 0.625000 0.712550
vt 0.625000 0.426875
vt 0.625000 0.468375
vt 0.625000 0.500000
vt 0.577490 0.500000
vt 0.875000 0.500000
vt 0.875000 0.750000
vt 0.875000 0.750000
vt 0.875000 0.500000
vt 0.577490 0.532899
vt 0.625000 0.532899
vt 0.398071 0.500000
vt 0.398071 0.532899
vt 0.398071 0.712550
vt 0.625000 0.250000
vt 0.625000 0.270152
vt 0.398071 0.750000
vt 0.395152 0.979848
vt 0.375000 1.000000
vt 0.424004 0.500000
vt 0.424004 0.532899
vt 0.424004 0.712550
vt 0.625000 0.292805
vt 0.424004 0.750000
vt 0.417805 0.957195
vt 0.625000 0.250000
vt 0.625000 0.270152
vt 0.854848 0.712550
vt 0.875000 0.712550
vt 0.875000 0.750000
vt 0.854848 0.750000
vt 0.625000 0.500000
vt 0.625000 0.532899
vt 0.125000 0.750000
vt 0.125000 0.712550
vt 0.125000 0.532899
vt 0.125000 0.500000
vt 0.625000 0.750000
vt 0.593375 0.781625
vt 0.625000 0.712550
vt 0.854848 0.532899
vt 0.875000 0.532899
vt 0.854848 0.500000
vt 0.875000 0.500000
vt 0.656625 0.500000
vt 0.656625 0.532899
vt 0.656625 0.712550
vt 0.551875 0.823125
vt 0.656625 0.750000
vt 0.625000 0.468375
vt 0.395152 0.979848
vt 0.375000 1.000000
vt 0.832195 0.500000
vt 0.832195 0.532899
vt 0.832195 0.712550
vt 0.832195 0.750000
vt 0.625000 0.292805
vt 0.625000 0.426875
vt 0.698125 0.712550
vt 0.698125 0.750000
vt 0.698125 0.500000
vt 0.698125 0.532899
vt 0.417805 0.957195
vt 0.000000 0.000000
vt 0.000000 0.000000
vt 0.000000 0.000000
vt 0.000000 0.000000
vt 0.000000 0.000000
vt 0.000000 0.000000
vt 0.000000 0.000000
vt 0.000000 0.000000
vn -0.0000 0.0000 1.0000
vn 0.0000 -1.0000 0.0000
vn 1.0000 0.0000 0.0000
vn 0.0000 0.0000 -1.0000
vn -0.4472 0.8944 0.0000
vn -1.0000 0.0000 0.0000
usemtl Material
s off
f 42/1/1 3/2/1 21/3/1 43/4/1
f 5/5/2 2/6/2 17/7/2 14/8/2 4/9/2 6/10/2
f 45/11/3 13/12/3 3/2/3 42/1/3
f 37/13/4 22/14/4 1/15/4 41/16/4
f 5/17/1 6/18/1 8/19/1 7/20/1
f 46/21/3 18/22/3 13/12/3 45/11/3
f 41/16/3 1/15/3 18/22/3 46/21/3
f 2/6/3 27/23/3 32/24/3 17/7/3
f 17/7/3 32/24/3 31/25/3 14/8/3
f 5/26/4 33/27/4 27/23/4 2/6/4
f 14/8/3 31/25/3 28/28/3 4/9/3
f 4/9/1 28/28/1 29/29/1 6/30/1
f 47/31/3 41/16/3 46/21/3 52/32/3
f 52/32/3 46/21/3 45/11/3 51/33/3
f 53/34/4 37/13/4 41/16/4 47/31/4
f 51/33/3 45/11/3 42/1/3 48/35/3
f 48/35/1 42/1/1 43/4/1 49/36/1
f 28/28/1 48/35/1 49/36/1 29/29/1
f 31/25/3 51/33/3 48/35/3 28/28/3
f 33/27/4 53/34/4 47/31/4 27/23/4
f 32/24/3 52/32/3 51/33/3 31/25/3
f 27/23/3 47/31/3 52/32/3 32/24/3
usemtl ground
f 33/27/4 5/26/4 9/37/4 34/38/4
f 35/39/5 15/40/5 10/41/5 30/42/5
f 18/22/3 1/15/3 11/43/3 20/44/3
f 5/5/6 6/10/6 10/45/6 15/46/6 19/47/6 9/48/6
f 21/3/1 3/2/1 12/49/1 23/50/1
f 3/2/3 13/12/3 16/51/3 12/49/3
f 36/52/5 19/53/5 15/40/5 35/39/5
f 34/54/5 9/55/5 19/53/5 36/52/5
f 13/12/3 18/22/3 20/44/3 16/51/3
f 11/43/5 24/56/5 26/57/5 20/44/5
f 20/44/5 26/57/5 25/58/5 16/51/5
f 43/4/1 21/3/1 23/50/1 44/59/1
f 16/51/5 25/58/5 23/60/5 12/49/5
f 1/15/4 22/14/4 24/61/4 11/43/4
f 6/30/1 29/29/1 30/62/1 10/63/1
f 54/64/5 34/54/5 36/52/5 56/65/5
f 55/66/5 35/39/5 30/42/5 50/67/5
f 53/34/4 33/27/4 34/38/4 54/68/4
f 22/14/4 37/13/4 38/69/4 24/61/4
f 25/58/5 39/70/5 44/71/5 23/60/5
f 24/56/5 38/72/5 40/73/5 26/57/5
f 49/36/1 43/4/1 44/59/1 50/74/1
f 29/29/1 49/36/1 50/74/1 30/62/1
f 37/13/4 53/34/4 54/68/4 38/69/4
f 39/70/5 55/66/5 50/67/5 44/71/5
f 38/72/5 54/64/5 56/65/5 40/73/5
usemtl snow.002
f 25/75/5 26/76/5 40/77/5
f 25/75/5 40/77/5 39/78/5
f 39/78/5 40/77/5 56/79/5
f 55/80/5 36/81/5 35/82/5
f 39/78/5 56/79/5 55/80/5
f 55/80/5 56/79/5 36/81/5
