# Blender v2.82 (sub 7) OBJ File: 'mountain_lib.blend'
# www.blender.org
mtllib hole.mtl
o hole_Cube.005
v 1.000000 0.500000 -1.000000
v 1.000000 -0.500000 -1.000000
v 1.000000 0.500000 1.000000
v 1.000000 -0.500000 1.000000
v -1.000000 -0.500000 -1.000000
v -1.000000 -0.500000 1.000000
v -1.000000 -0.500000 -1.000000
v -1.000000 -0.500000 1.000000
v -1.000000 -0.447138 -1.000000
v -1.000000 -0.447138 1.000000
v 1.000000 0.552862 -1.000000
v 1.000000 0.552862 1.000000
v 1.000000 0.500000 0.700399
v 1.000000 -0.500000 0.700399
v -1.000000 -0.447138 0.700399
v 1.000000 0.552862 0.700399
v 1.000000 -0.500000 -0.736810
v 1.000000 0.500000 -0.736810
v -1.000000 -0.447138 -0.736810
v 1.000000 0.552862 -0.736810
v 0.746999 0.373500 1.000000
v 0.746999 0.373500 -1.000000
v 0.746999 0.426362 1.000000
v 0.746999 0.426362 -1.000000
v 0.643223 0.374473 0.452911
v 0.747579 0.426651 -0.346483
v 1.000000 -0.407716 -1.000000
v 1.000000 -0.407716 1.000000
v -0.838780 -0.419390 1.000000
v -0.838780 -0.366528 1.000000
v 1.000000 -0.407716 0.700399
v 1.000000 -0.407716 -0.736810
v -0.838780 -0.419390 -1.000000
v -0.838780 -0.366528 -1.000000
v -0.796316 -0.345296 0.573455
v -0.752347 -0.323312 -0.512184
v 0.415000 0.207500 -1.000000
v 0.415000 0.260362 -1.000000
v 0.110007 0.107866 0.777216
v 0.415000 0.260362 -0.736810
v 1.000000 0.309960 -1.000000
v 1.000000 0.309960 1.000000
v 0.415000 0.207500 1.000000
v 0.415000 0.260362 1.000000
v 1.000000 0.309960 0.700399
v 1.000000 0.309960 -0.736810
v 1.000000 -0.303986 -1.000000
v 1.000000 -0.303986 1.000000
v -0.657563 -0.328782 1.000000
v -0.657563 -0.275920 1.000000
v 1.000000 -0.303986 0.700399
v 1.000000 -0.303986 -0.736810
v -0.657563 -0.328782 -1.000000
v -0.657563 -0.275920 -1.000000
v -0.489658 -0.191967 0.817401
v -0.237380 -0.065829 -0.842930
v 0.155089 -0.430622 0.777216
v 0.694726 -0.429443 0.452911
v 0.470784 -0.402278 -0.736810
v 0.799082 -0.377265 -0.346483
v -0.700844 -0.426318 -0.512184
v -0.744812 -0.448302 0.573455
v -0.438154 -0.437199 0.817401
v -0.183737 -0.428791 -0.842930
vt 0.577490 0.750000
vt 0.625000 0.750000
vt 0.593375 0.781625
vt 0.551875 0.823125
vt 0.125000 0.500000
vt 0.375000 0.500000
vt 0.375000 0.532899
vt 0.375000 0.712550
vt 0.375000 0.750000
vt 0.125000 0.750000
vt 0.577490 0.712550
vt 0.625000 0.712550
vt 0.625000 0.426875
vt 0.625000 0.468375
vt 0.625000 0.500000
vt 0.577490 0.500000
vt 0.875000 0.500000
vt 0.875000 0.750000
vt 0.875000 0.750000
vt 0.875000 0.500000
vt 0.577490 0.532899
vt 0.625000 0.532899
vt 0.398071 0.500000
vt 0.398071 0.532899
vt 0.398071 0.712550
vt 0.625000 0.250000
vt 0.625000 0.270152
vt 0.398071 0.750000
vt 0.395152 0.979848
vt 0.375000 1.000000
vt 0.424004 0.500000
vt 0.424004 0.532899
vt 0.424004 0.712550
vt 0.625000 0.292805
vt 0.424004 0.750000
vt 0.417805 0.957195
vt 0.625000 0.250000
vt 0.625000 0.270152
vt 0.854848 0.712550
vt 0.875000 0.712550
vt 0.875000 0.750000
vt 0.854848 0.750000
vt 0.625000 0.500000
vt 0.625000 0.532899
vt 0.125000 0.750000
vt 0.125000 0.712550
vt 0.125000 0.532899
vt 0.125000 0.500000
vt 0.625000 0.750000
vt 0.593375 0.781625
vt 0.625000 0.712550
vt 0.854848 0.532899
vt 0.875000 0.532899
vt 0.854848 0.500000
vt 0.875000 0.500000
vt 0.656625 0.500000
vt 0.656625 0.532899
vt 0.656625 0.712550
vt 0.551875 0.823125
vt 0.656625 0.750000
vt 0.625000 0.468375
vt 0.395152 0.979848
vt 0.375000 1.000000
vt 0.832195 0.500000
vt 0.832195 0.532899
vt 0.832195 0.712550
vt 0.832195 0.750000
vt 0.625000 0.292805
vt 0.625000 0.426875
vt 0.698125 0.712550
vt 0.698125 0.750000
vt 0.698125 0.500000
vt 0.698125 0.532899
vt 0.417805 0.957195
vt 0.698125 0.712550
vt 0.832195 0.712550
vt 0.656625 0.712550
vt 0.854848 0.712550
vt 0.832195 0.532899
vt 0.854848 0.532899
vt 0.656625 0.532899
vt 0.698125 0.532899
vn -0.0000 0.0000 1.0000
vn 0.0000 -1.0000 0.0000
vn 1.0000 0.0000 0.0000
vn 0.0000 0.0000 -1.0000
vn -0.4472 0.8944 0.0000
vn -1.0000 0.0000 0.0000
vn -0.0652 -0.0080 -0.9978
vn -0.5103 -0.0367 -0.8592
vn 0.5844 0.1729 -0.7929
vn -0.0094 0.9999 0.0100
vn -0.0323 0.9991 0.0289
vn -0.0269 0.9996 0.0067
vn -0.9891 -0.0634 -0.1333
vn 0.5154 0.1163 0.8490
vn -0.7553 -0.0553 0.6530
vn 0.8935 0.4468 0.0452
vn -0.1559 -0.0166 0.9876
usemtl Material
s off
f 42/1/1 3/2/1 21/3/1 43/4/1
f 5/5/2 2/6/2 17/7/2 14/8/2 4/9/2 6/10/2
f 45/11/3 13/12/3 3/2/3 42/1/3
f 37/13/4 22/14/4 1/15/4 41/16/4
f 5/17/1 6/18/1 8/19/1 7/20/1
f 46/21/3 18/22/3 13/12/3 45/11/3
f 41/16/3 1/15/3 18/22/3 46/21/3
f 2/6/3 27/23/3 32/24/3 17/7/3
f 17/7/3 32/24/3 31/25/3 14/8/3
f 5/26/4 33/27/4 27/23/4 2/6/4
f 14/8/3 31/25/3 28/28/3 4/9/3
f 4/9/1 28/28/1 29/29/1 6/30/1
f 47/31/3 41/16/3 46/21/3 52/32/3
f 52/32/3 46/21/3 45/11/3 51/33/3
f 53/34/4 37/13/4 41/16/4 47/31/4
f 51/33/3 45/11/3 42/1/3 48/35/3
f 48/35/1 42/1/1 43/4/1 49/36/1
f 28/28/1 48/35/1 49/36/1 29/29/1
f 31/25/3 51/33/3 48/35/3 28/28/3
f 33/27/4 53/34/4 47/31/4 27/23/4
f 32/24/3 52/32/3 51/33/3 31/25/3
f 27/23/3 47/31/3 52/32/3 32/24/3
usemtl ground
f 33/27/4 5/26/4 9/37/4 34/38/4
f 35/39/5 15/40/5 10/41/5 30/42/5
f 18/22/3 1/15/3 11/43/3 20/44/3
f 5/5/6 6/10/6 10/45/6 15/46/6 19/47/6 9/48/6
f 21/3/1 3/2/1 12/49/1 23/50/1
f 3/2/3 13/12/3 16/51/3 12/49/3
f 36/52/5 19/53/5 15/40/5 35/39/5
f 34/54/5 9/55/5 19/53/5 36/52/5
f 13/12/3 18/22/3 20/44/3 16/51/3
f 11/43/5 24/56/5 26/57/5 20/44/5
f 20/44/5 26/57/5 25/58/5 16/51/5
f 43/4/1 21/3/1 23/50/1 44/59/1
f 16/51/5 25/58/5 23/60/5 12/49/5
f 1/15/4 22/14/4 24/61/4 11/43/4
f 6/30/1 29/29/1 30/62/1 10/63/1
f 54/64/5 34/54/5 36/52/5 56/65/5
f 55/66/5 35/39/5 30/42/5 50/67/5
f 53/34/4 33/27/4 34/38/4 54/68/4
f 22/14/4 37/13/4 38/69/4 24/61/4
f 25/58/5 39/70/5 44/71/5 23/60/5
f 24/56/5 38/72/5 40/73/5 26/57/5
f 49/36/1 43/4/1 44/59/1 50/74/1
f 29/29/1 49/36/1 50/74/1 30/62/1
f 37/13/4 53/34/4 54/68/4 38/69/4
f 39/70/5 55/66/5 50/67/5 44/71/5
f 38/72/5 54/64/5 56/65/5 40/73/5
usemtl hole
f 55/66/7 39/70/7 57/75/7 63/76/7
f 39/70/8 25/58/8 58/77/8 57/75/8
f 35/39/9 55/66/9 63/76/9 62/78/9
f 64/79/10 61/80/10 62/78/10 63/76/10
f 60/81/11 59/82/11 57/75/11 58/77/11
f 59/82/12 64/79/12 63/76/12 57/75/12
f 25/58/13 26/57/13 60/81/13 58/77/13
f 56/65/14 36/52/14 61/80/14 64/79/14
f 26/57/15 40/73/15 59/82/15 60/81/15
f 36/52/16 35/39/16 62/78/16 61/80/16
f 40/73/17 56/65/17 64/79/17 59/82/17
