# Blender v2.82 (sub 7) OBJ File: 'mountain_lib.blend'
# www.blender.org
mtllib house.mtl
o house_Cube.004
v -0.453536 -0.000023 0.448431
v -0.453536 0.899300 0.448431
v -0.453536 -0.000023 -0.450893
v -0.453536 0.899300 -0.450893
v 0.445788 -0.000023 0.448431
v 0.445788 0.899300 0.448431
v 0.445788 -0.000023 -0.450893
v 0.445788 0.899300 -0.450893
v -0.533618 0.737086 0.547569
v -0.533618 0.806284 0.547569
v -0.533618 0.737086 -0.550031
v -0.533618 0.806284 -0.550031
v 0.525870 0.737086 0.547569
v 0.525870 0.806284 0.547569
v 0.525870 0.737086 -0.550031
v 0.525870 0.806284 -0.550031
v -0.533618 1.344316 -0.001231
v -0.533618 1.413514 -0.001231
v 0.525870 1.344316 -0.001231
v 0.525870 1.413514 -0.001231
vt 0.375000 0.000000
vt 0.625000 0.000000
vt 0.625000 0.250000
vt 0.375000 0.250000
vt 0.625000 0.500000
vt 0.375000 0.500000
vt 0.625000 0.750000
vt 0.375000 0.750000
vt 0.625000 1.000000
vt 0.375000 1.000000
vt 0.125000 0.500000
vt 0.125000 0.750000
vt 0.875000 0.500000
vt 0.875000 0.750000
vt 0.375000 0.125000
vt 0.625000 0.125000
vt 0.625000 0.250000
vt 0.375000 0.250000
vt 0.625000 0.500000
vt 0.375000 0.500000
vt 0.375000 0.625000
vt 0.625000 0.625000
vt 0.625000 0.750000
vt 0.375000 0.750000
vt 0.625000 1.000000
vt 0.375000 1.000000
vt 0.125000 0.625000
vt 0.125000 0.750000
vt 0.875000 0.625000
vt 0.875000 0.750000
vt 0.875000 0.500000
vt 0.125000 0.500000
vt 0.375000 0.000000
vt 0.625000 0.000000
vn -1.0000 0.0000 0.0000
vn 0.0000 0.0000 -1.0000
vn 1.0000 0.0000 0.0000
vn 0.0000 0.0000 1.0000
vn 0.0000 -1.0000 0.0000
vn 0.0000 1.0000 0.0000
vn 0.0000 -0.6705 -0.7419
vn 0.0000 0.6705 0.7419
vn 0.0000 0.6705 -0.7419
vn 0.0000 -0.6705 0.7419
usemtl None
s off
f 1/1/1 2/2/1 4/3/1 3/4/1
f 3/4/2 4/3/2 8/5/2 7/6/2
f 7/6/3 8/5/3 6/7/3 5/8/3
f 5/8/4 6/7/4 2/9/4 1/10/4
f 3/11/5 7/6/5 5/8/5 1/12/5
f 8/5/6 4/13/6 2/14/6 6/7/6
f 17/15/1 18/16/1 12/17/1 11/18/1
f 11/18/2 12/17/2 16/19/2 15/20/2
f 19/21/3 20/22/3 14/23/3 13/24/3
f 13/24/4 14/23/4 10/25/4 9/26/4
f 17/27/7 19/21/7 13/24/7 9/28/7
f 20/22/8 18/29/8 10/30/8 14/23/8
f 16/19/9 12/31/9 18/29/9 20/22/9
f 11/32/10 15/20/10 19/21/10 17/27/10
f 15/20/3 16/19/3 20/22/3 19/21/3
f 9/33/1 10/34/1 18/16/1 17/15/1
